<svg width="25" height="25" viewBox="0 0 25 25" fill="none" xmlns="http://www.w3.org/2000/svg">
<path d="M7.96639 10.4267L15.9231 24.5173C14.8127 24.8407 13.6587 25 12.5 25C5.60061 25 0 19.4053 0 12.5024C0 11.7832 0.0627632 11.0736 0.178638 10.3881L7.96639 10.4267ZM0.700077 9.37441L0.41039 9.32613C1.81054 3.95831 6.69177 1.71606e-05 12.5 1.71606e-05C15.4065 -0.00481002 18.2261 1.0089 20.4616 2.86254C20.4616 2.86254 16.6425 9.50474 16.459 9.36958C16.2852 9.23925 0.700077 9.37441 0.700077 9.37441ZM25 12.4976C25 17.8606 21.6251 22.4368 16.8743 24.2035L12.809 17.513L21.1809 3.50938C23.624 5.86504 25.0048 9.10891 25 12.4976Z" fill="#E31C19"/>
</svg>
