<svg width="30" height="30" viewBox="0 0 30 30" fill="none" xmlns="http://www.w3.org/2000/svg">
<path d="M9.55967 12.5121L19.1078 29.4207C17.7752 29.8088 16.3905 30 15 30C6.72073 30 0 23.2864 0 15.0029C0 14.1398 0.0753158 13.2883 0.214366 12.4657L9.55967 12.5121ZM0.840092 11.2493L0.492468 11.1914C2.17265 4.74997 8.03012 2.05927e-05 15 2.05927e-05C18.4878 -0.00577203 21.8714 1.21068 24.5539 3.43504C24.5539 3.43504 19.971 11.4057 19.7509 11.2435C19.5423 11.0871 0.840092 11.2493 0.840092 11.2493ZM30 14.9971C30 21.4327 25.9502 26.9241 20.2491 29.0442L15.3708 21.0156L25.4171 4.21126C28.3488 7.03805 30.0058 10.9307 30 14.9971Z" fill="#E31C19"/>
</svg>
