<svg width="52" height="67" viewBox="0 0 52 67" fill="none" xmlns="http://www.w3.org/2000/svg">
<path d="M52 25.9999C52 46.8191 28.4971 66.1004 28.4971 66.1004C27.1238 67.2271 24.8762 67.2271 23.5029 66.1004C23.5029 66.1004 0 46.8191 0 25.9999C0.000261506 11.6405 11.6408 0 26.0001 0C40.3593 0 52 11.6405 52 25.9999Z" fill="#E71823"/>
<path d="M41.2318 33.084C40.5249 33.8923 38.6449 34.8342 36.5226 34.8342C33.2755 34.8342 30.0055 32.9012 29.6762 29.2821H29.4276C27.7748 34.5089 24.1089 35.3337 22.1054 35.3337C14.5513 35.3337 14.7294 25.6463 15.1775 21.1635C15.2827 20.1091 15.4157 16 17.4762 16C19.1243 16 18.9161 17.6964 18.8528 19.2978C18.6961 23.1346 17.6464 32.4563 23.0902 32.4563C29.7245 32.4563 28.9542 23.976 29.7292 19.939C30.049 18.2782 32.7238 18.3209 32.6296 20.4289C32.5338 22.6011 32.4143 24.3299 32.3082 26.6342C31.9583 34.1741 38.0749 34.3735 41.2318 32.336V33.084Z" fill="white"/>
</svg>
