<svg width="52" height="67" viewBox="0 0 52 67" fill="none" xmlns="http://www.w3.org/2000/svg">
<path d="M52 25.9999C52 46.8191 28.4971 66.1004 28.4971 66.1004C27.1238 67.2271 24.8762 67.2271 23.5029 66.1004C23.5029 66.1004 0 46.8191 0 25.9999C0.000261506 11.6405 11.6408 0 26.0001 0C40.3593 0 52 11.6405 52 25.9999Z" fill="#013E8F"/>
<path d="M22.9064 41.5451C19.4827 41.6056 16.1003 40.7905 13.0799 39.1772C10.3386 37.7618 8.21649 35.384 7.12084 32.4999C6.30511 30.2559 6.19223 27.8167 6.79724 25.5069C7.76208 21.8857 9.86154 18.6687 12.7879 16.3276C16.5887 13.0941 21.2532 11.0444 26.2056 10.4316C29.649 9.904 33.169 10.2154 36.4663 11.3393C39.5122 12.2802 42.1478 14.2284 43.9407 16.8643C44.8425 18.231 45.4432 19.7738 45.7031 21.3904C45.963 23.0071 45.8762 24.6605 45.4483 26.2409C44.6686 29.2518 43.064 31.9853 40.8152 34.1337C37.7154 37.2195 33.8583 39.4353 29.6311 40.5585C27.4398 41.1683 25.1805 41.4997 22.9064 41.5451Z" fill="#013E8F"/>
<path d="M48.2108 22.6023C48.1585 23.9824 47.9113 25.3483 47.4767 26.6592C46.6772 29.0775 45.3874 31.305 43.6882 33.2023C42.5573 34.5182 41.2811 35.7018 39.8839 36.7304C38.6282 37.6052 37.3295 38.4165 35.9927 39.1614C34.3703 40.1001 32.6431 40.8446 30.8466 41.3793C29.2509 41.8296 27.6301 42.1854 25.9925 42.4448C25.0018 42.6134 23.9982 42.6953 22.9933 42.6895C21.5037 42.7355 20.0127 42.7065 18.5259 42.6027C17.4561 42.4752 16.3996 42.2533 15.3688 41.9397C14.3373 41.6726 13.3269 41.3296 12.3459 40.9136C11.0197 40.3434 9.77918 39.5917 8.65995 38.68C7.61892 37.8412 6.7091 36.8515 5.96061 35.7438C4.36115 33.3171 3.70686 30.3883 4.12159 27.5116C4.24054 26.3738 4.54168 25.2625 5.01348 24.2203C5.40022 23.4311 5.7554 22.555 6.1974 21.7657C6.91458 20.4781 7.78954 19.285 8.80202 18.2139C9.39404 17.5717 10.024 16.9655 10.6884 16.3986C11.6434 15.6093 12.6379 14.82 13.6561 14.1333C14.4456 13.5999 15.2652 13.1124 16.1108 12.6732C16.7957 12.301 17.499 11.9638 18.2181 11.6629C19.1495 11.2604 20.0887 10.8736 21.0438 10.5342C21.7417 10.2989 22.4534 10.1065 23.1748 9.95806C24.2324 9.69759 25.3216 9.4766 26.403 9.29506C27.066 9.18456 27.7368 9.1372 28.4077 9.08196C28.8639 9.03206 29.3222 9.00571 29.7811 9.00303C31.7658 8.9736 33.7479 9.15884 35.6928 9.55552C38.1522 10.0684 40.4893 11.052 42.5753 12.4522C43.7158 13.2197 44.7303 14.1596 45.5825 15.2383C46.7485 16.6717 47.5404 18.3722 47.8872 20.1871C48.0292 20.9606 48.1082 21.7815 48.2108 22.6023ZM22.9065 41.4109C25.1479 41.3733 27.3755 41.0524 29.5364 40.4558C33.7088 39.3543 37.519 37.177 40.5863 34.1416C42.8093 32.0102 44.3945 29.3017 45.1641 26.3198C45.5893 24.7568 45.6761 23.1211 45.4189 21.5219C45.1616 19.9226 44.5662 18.3966 43.6724 17.0458C41.9082 14.4259 39.306 12.4833 36.2926 11.5366C33.0403 10.4318 29.5703 10.1233 26.1741 10.6368C21.2748 11.2453 16.6603 13.2727 12.8984 16.4696C10.006 18.7883 7.93168 21.9718 6.97878 25.5542C6.38218 27.8383 6.49505 30.2499 7.30239 32.4683C8.38112 35.3263 10.4782 37.6848 13.1904 39.0904C16.1785 40.6791 19.523 41.4779 22.9065 41.4109Z" fill="#FFC72C"/>
<path d="M19.5362 29.7059H19.3309C17.9181 29.7059 17.3735 29.2244 17.1762 27.8432C17.0815 27.1644 17.0815 27.1644 16.3869 27.1644H14.6111C14.3664 27.1644 14.248 27.2433 14.2006 27.488C14.0665 28.0957 13.9086 28.6956 13.7744 29.2954C13.7699 29.3595 13.7519 29.4218 13.7217 29.4784C13.6916 29.535 13.6498 29.5847 13.5992 29.6241C13.5486 29.6636 13.4903 29.6919 13.428 29.7074C13.3657 29.7228 13.3009 29.725 13.2377 29.7138C12.7945 29.7152 12.3516 29.6889 11.9117 29.6348C11.7498 29.625 11.5924 29.5775 11.4521 29.4961C11.3118 29.4147 11.1924 29.3017 11.1035 29.166C11.0146 29.0303 10.9586 28.8758 10.9399 28.7146C10.9213 28.5535 10.9406 28.3902 10.9962 28.2378C11.3592 26.8724 11.7854 25.5148 12.2274 24.1888C12.8667 22.4208 13.585 20.6765 14.2875 18.9243C14.6979 17.8982 14.7137 17.9061 15.8187 17.9061H16.7105C17.031 17.8806 17.3504 17.9664 17.615 18.149C17.8795 18.3316 18.073 18.5999 18.1628 18.9085C18.3687 19.52 18.5426 20.1417 18.6837 20.7712C19.3073 23.4153 19.9308 26.0594 20.5307 28.7114C20.7517 29.6585 20.6806 29.7059 19.5362 29.7059ZM16.6948 24.6861L16.0712 20.637H16.0002L14.9031 24.6861H16.6948ZM29.3232 27.3301C29.4653 26.7776 29.6232 26.2252 29.7494 25.6648C30.0809 24.2204 30.3967 22.776 30.7203 21.3316C30.8702 20.637 30.9255 20.5423 31.6358 20.6213C32.145 20.6546 32.6498 20.7366 33.1433 20.8659C33.2658 20.8836 33.3824 20.9298 33.4837 21.0008C33.585 21.0718 33.6682 21.1656 33.7266 21.2747C33.785 21.3838 33.8169 21.505 33.8198 21.6287C33.8227 21.7524 33.7964 21.875 33.7432 21.9867C33.1828 23.5653 32.6066 25.1438 31.9752 26.6593C31.6043 27.559 31.1149 28.4193 30.6808 29.3033C30.6228 29.4598 30.5126 29.5916 30.3689 29.6764C30.2251 29.7612 30.0566 29.7939 29.8915 29.769H28.5576C28.3265 29.7933 28.0937 29.7407 27.8954 29.6195C27.6971 29.4982 27.5443 29.315 27.4605 29.0981C27.2711 28.6482 27.1211 28.1668 26.9712 27.6932C26.324 25.5543 25.6925 23.4153 25.0453 21.2764C24.9348 20.9054 25.1085 20.6134 25.5031 20.6213C26.1593 20.6366 26.8135 20.7 27.4605 20.8107C27.7567 20.8673 28.024 21.025 28.2169 21.2567C28.4097 21.4884 28.5162 21.7799 28.5182 22.0814C28.7471 23.7863 28.9681 25.499 29.1891 27.2039V27.3144L29.3232 27.3301ZM22.6617 18.0798C22.8246 18.0679 22.9882 18.0679 23.1511 18.0798C23.3285 18.0762 23.5047 18.1108 23.6676 18.1812C23.8306 18.2517 23.9765 18.3563 24.0955 18.488C24.2145 18.6197 24.3038 18.7755 24.3574 18.9447C24.4109 19.1139 24.4275 19.2927 24.406 19.4689C24.3271 20.9843 24.1929 22.4997 24.0824 24.0073C24.0193 24.9228 23.9482 25.8384 23.9088 26.7461C23.9088 27.2907 24.0429 27.4485 24.5718 27.6616C24.6292 27.6924 24.6784 27.7363 24.7155 27.7898C24.7525 27.8434 24.7763 27.9049 24.7849 27.9695C24.8079 28.2829 24.7368 28.5961 24.5807 28.8689C24.4246 29.1417 24.1906 29.3616 23.9088 29.5007C23.5727 29.6639 23.198 29.731 22.8262 29.6948C22.4543 29.6586 22.0997 29.5204 21.8014 29.2954C21.6374 29.1555 21.5084 28.9791 21.4248 28.7804C21.3412 28.5816 21.3053 28.3661 21.3199 28.151C21.3199 27.4012 21.3199 26.6514 21.3831 25.9015C21.5304 23.5495 21.6909 21.2001 21.8645 18.8533C21.9277 18.0403 21.7698 18.0719 22.6617 18.0798ZM34.3352 26.825C34.4693 25.0412 34.6035 23.2575 34.714 21.4737C34.714 21.1106 34.8719 20.9607 35.2349 21.0001C35.598 21.0396 35.8506 21.0001 36.1505 21.0554C36.2952 21.0565 36.4381 21.0882 36.5697 21.1485C36.7013 21.2087 36.8186 21.2962 36.9141 21.405C37.0095 21.5138 37.0808 21.6416 37.1233 21.78C37.1658 21.9183 37.1786 22.0641 37.1608 22.2077C37.1608 22.997 37.1608 23.7863 37.0661 24.5203C36.9635 25.9805 36.8293 27.4327 36.7267 28.885C36.7267 29.2244 36.5925 29.3823 36.2373 29.3507C35.8821 29.3191 35.5743 29.3507 35.2507 29.2797C35.0023 29.2616 34.7701 29.1495 34.6014 28.9662C34.4328 28.7829 34.3404 28.5421 34.3431 28.2931V26.825H34.3352Z" fill="white"/>
<path d="M34.793 19.9819C34.6036 20.345 34.501 20.3766 33.8538 20.2424C34.0827 19.1295 34.3116 18.0166 34.5484 16.9038C34.5449 16.8696 34.5449 16.8353 34.5484 16.8011C34.7141 16.0671 34.7141 16.0671 35.5428 16.1855L35.2666 17.6062C35.6236 17.4628 35.9936 17.3544 36.3716 17.2826C36.5505 17.2529 36.7339 17.2951 36.8818 17.4001C37.0296 17.5051 37.13 17.6643 37.1609 17.843C37.2429 18.2519 37.2129 18.6754 37.074 19.0686C36.935 19.4618 36.6923 19.8101 36.3716 20.0767C36.262 20.1747 36.1341 20.2502 35.9953 20.2985C35.8564 20.3469 35.7093 20.3673 35.5626 20.3585C35.4158 20.3496 35.2722 20.3118 35.1401 20.2472C35.008 20.1826 34.8901 20.0924 34.793 19.9819ZM36.2137 18.4744C36.2235 18.3775 36.2075 18.2798 36.1673 18.1911C36.1271 18.1023 36.0641 18.0258 35.9848 17.9693C35.7086 17.8272 35.3613 18.1192 35.3218 18.1745C35.1614 18.4564 35.0494 18.7632 34.9904 19.0822C34.9272 19.3347 34.9035 19.611 35.2035 19.7373C35.3147 19.7877 35.4391 19.8016 35.5586 19.7767C35.642 19.7501 35.7191 19.707 35.7855 19.6501C35.852 19.5932 35.9063 19.5235 35.9454 19.4452C36.1311 19.1559 36.2272 18.8182 36.2216 18.4744H36.2137ZM28.4788 17.6536C28.4788 16.9353 27.9737 16.6828 27.3817 17.03C27.0427 17.3121 26.7892 17.6832 26.6497 18.1015C26.5103 18.5199 26.4904 18.9688 26.5924 19.3979C26.6636 19.5104 26.7621 19.603 26.8787 19.6672C26.9953 19.7314 27.1262 19.7651 27.2594 19.7651C27.3925 19.7651 27.5234 19.7314 27.64 19.6672C27.7566 19.603 27.8551 19.5104 27.9263 19.3979C28.171 18.9243 28.4946 18.9717 28.9681 19.019C28.8451 19.2965 28.6943 19.561 28.5183 19.8083C28.2533 20.097 27.9069 20.2983 27.5249 20.3857C27.1429 20.4731 26.7434 20.4424 26.3793 20.2977C26.0857 20.1432 25.8482 19.9002 25.7005 19.6031C25.5678 19.2101 25.533 18.7906 25.5991 18.3811C25.6652 17.9716 25.8302 17.5845 26.0798 17.2532C26.3295 16.9219 26.6561 16.6565 27.0316 16.4801C27.407 16.3037 27.8198 16.2215 28.2341 16.2408C28.8498 16.3039 29.2444 16.6354 29.2839 17.1326C29.3233 17.6299 29.2286 17.6694 28.8024 17.6694L28.4788 17.6536ZM34.0985 17.1879C33.8854 18.1666 33.6959 19.098 33.4828 20.0293C33.4828 20.1319 33.2934 20.2424 33.175 20.274C32.994 20.294 32.8114 20.294 32.6304 20.274V19.7846C32.5593 19.8515 32.4828 19.9122 32.4015 19.9662C32.1678 20.1319 31.9095 20.2598 31.6359 20.345C31.0282 20.4555 30.6651 20.1161 30.7519 19.5084C30.8703 18.7191 31.0518 17.9772 31.2097 17.2037H32.1332C31.999 17.8746 31.8569 18.5218 31.7385 19.169C31.7385 19.3189 31.7385 19.6031 31.8253 19.6268C31.9237 19.6639 32.0295 19.6769 32.1339 19.6645C32.2383 19.6521 32.3382 19.6148 32.4252 19.5557C32.6065 19.3885 32.74 19.176 32.8119 18.9401C32.941 18.495 33.0386 18.0413 33.104 17.5825C33.1513 17.2431 33.3013 17.1326 33.6249 17.1721C33.7822 17.1878 33.9404 17.1931 34.0985 17.1879ZM29.1418 20.345C29.3628 19.3111 29.568 18.3323 29.7653 17.3615L29.86 16.9195C30.0021 16.1776 30.0416 16.1303 30.8466 16.3039C30.6651 17.2037 30.4836 18.1113 30.2941 19.0111C30.2389 19.3032 30.1521 19.5873 30.1126 19.8872C30.0731 20.1872 29.9626 20.4239 29.5759 20.3529C29.4319 20.334 29.2863 20.3313 29.1418 20.345ZM14.3823 32.2474C14.5085 31.6317 14.6743 30.9214 14.769 30.5346C14.4691 31.2292 13.7429 32.6262 13.2299 33.6365H12.6616C12.6143 32.713 12.5196 31.2134 12.4959 30.5267C12.4406 30.9372 12.2907 31.7106 12.1644 32.3263L11.8881 33.6365H11.3356L12.0854 30.0926H12.93C13.001 31.0003 13.1036 32.3105 13.1115 32.8156C13.2694 32.4052 14.0192 31.024 14.5085 30.0926H15.4162L14.6269 33.6365H14.0429L14.3823 32.2474ZM16.2765 32.6972L15.7951 33.6365H15.1715C15.7398 32.5315 16.3002 31.4344 16.9948 30.0926H17.784L18.155 33.6365H17.5552L17.4289 32.6972H16.2765ZM17.4289 32.1842C17.3578 31.3949 17.2947 30.8661 17.2868 30.6057C17.1132 31.0003 16.8448 31.5686 16.4975 32.1842H17.4289ZM18.8654 33.6365L19.1653 32.2552C19.1768 32.2193 19.1768 32.1807 19.1653 32.1447L18.5023 30.0926H19.1337C19.2758 30.6057 19.4968 31.3713 19.5836 31.6712C19.8204 31.3239 20.3729 30.5741 20.7044 30.0926H21.3753L19.7967 32.1842C19.7716 32.2133 19.7552 32.2489 19.7494 32.2868L19.4652 33.6365H18.8654ZM24.2325 31.4423C24.2325 32.4131 23.7431 33.6838 22.4171 33.6838C21.541 33.6838 21.1227 33.1313 21.1227 32.271C21.1227 31.4107 21.6199 30.0453 22.9223 30.0453C23.1047 30.0346 23.2872 30.0642 23.4569 30.132C23.6266 30.1997 23.7793 30.3039 23.9043 30.4371C24.0293 30.5704 24.1235 30.7295 24.1802 30.9032C24.2369 31.0769 24.2547 31.2609 24.2325 31.4423ZM21.7541 32.2947C21.7541 32.8946 22.0146 33.2024 22.4803 33.2024C23.2695 33.2024 23.601 32.129 23.601 31.4344C23.601 30.874 23.3721 30.5346 22.8591 30.5346C22.0856 30.5346 21.7541 31.5844 21.7541 32.2947ZM25.4164 32.1132L25.1007 33.6365H24.5324L25.2822 30.0926H26.4661C27.1291 30.0926 27.4922 30.4715 27.4922 30.9608C27.4994 31.1715 27.4368 31.3786 27.314 31.5499C27.1912 31.7212 27.0152 31.8471 26.8134 31.908C27.0897 32.05 27.1686 32.3657 27.066 32.8393C27.0082 33.0993 26.9687 33.3631 26.9476 33.6286H26.3477C26.363 33.3619 26.4053 33.0975 26.474 32.8393C26.5687 32.3973 26.5293 32.129 25.9926 32.129L25.4164 32.1132ZM25.5269 31.6317H26.111C26.5608 31.6317 26.8529 31.4581 26.8529 31.0319C26.8529 30.6057 26.6319 30.582 26.3241 30.582H25.7558L25.5269 31.6317ZM28.9603 30.0926L28.2104 33.6365H27.6106L28.3999 30.0926H28.9603ZM29.5838 32.5946C29.5834 32.6814 29.6012 32.7672 29.6359 32.8467C29.6707 32.9262 29.7216 32.9976 29.7855 33.0563C29.8494 33.115 29.9248 33.1597 30.007 33.1876C30.0891 33.2154 30.1762 33.2259 30.2626 33.2182C30.6177 33.2182 30.8782 33.0366 30.8782 32.6736C30.8782 32.3105 30.7282 32.2316 30.2862 32.0264C29.6469 31.7343 29.4022 31.5054 29.4022 31.0476C29.4034 30.9039 29.4349 30.7621 29.4948 30.6315C29.5546 30.5008 29.6414 30.3843 29.7495 30.2896C29.8576 30.195 29.9846 30.1242 30.122 30.0821C30.2594 30.04 30.4041 30.0274 30.5467 30.0453C31.336 30.0453 31.7148 30.5109 31.7069 31.0713H31.115C31.1188 30.994 31.1059 30.9167 31.077 30.8449C31.0482 30.773 31.0041 30.7082 30.9479 30.655C30.8917 30.6017 30.8246 30.5613 30.7512 30.5364C30.6779 30.5116 30.6 30.5029 30.523 30.5109C30.1836 30.5109 30.01 30.7004 30.01 30.9687C30.01 31.2371 30.1679 31.3318 30.5783 31.5133C31.3123 31.8448 31.5096 32.1369 31.5096 32.571C31.5096 33.2024 31.0755 33.6838 30.2073 33.6838C30.0533 33.7058 29.8964 33.6938 29.7476 33.6487C29.5987 33.6035 29.4615 33.5263 29.3457 33.4225C29.2299 33.3187 29.1382 33.1908 29.077 33.0478C29.0159 32.9048 28.9868 32.7501 28.9918 32.5946H29.5838ZM33.0014 30.6057H32.0463L32.1568 30.1005H34.6746L34.5641 30.6057H33.6091L32.9698 33.6444H32.362L33.0014 30.6057ZM34.9035 32.6972L34.4221 33.6365H33.7985C34.3668 32.5315 34.9272 31.4344 35.6218 30.0926H36.4111L36.782 33.6365H36.1822L36.0796 32.6972H34.9035ZM36.0559 32.1842C35.9848 31.3949 35.9217 30.8661 35.9138 30.6057C35.7402 31.0003 35.4718 31.5686 35.1245 32.1842H36.0559Z" fill="#FFC72C"/>
</svg>
